<svg width="90mm" height="18.855mm" xmlns="http://www.w3.org/2000/svg" xml:space="preserve" style="shape-rendering:geometricPrecision;text-rendering:geometricPrecision;image-rendering:optimizeQuality;fill-rule:evenodd;clip-rule:evenodd" viewBox="0 0 90 18.855"><defs><style>.fil2{fill:#e31e24}.fil0{fill:#2b2a29;fill-rule:nonzero}</style></defs><g id="Katman_x0020_1"><path d="M.339 17.82v-4.1h2.105v.681H1.097v.948H2.35V16H1.097v1.127h1.379v.692z" class="fil0"/><path id="1" d="M3.354 17.82v-4.1h.707v4.098z" class="fil0"/><path id="12" d="M5.679 15.891h.692v-.13q0-.317-.077-.437t-.272-.12q-.188 0-.269.124-.079.125-.08.432l.003.045zm.716.873h.67l.003.06.002.06q0 .526-.25.772-.252.246-.798.246a1.4 1.4 0 0 1-.481-.072.74.74 0 0 1-.32-.223q-.15-.18-.21-.45-.061-.271-.061-.976 0-.561.053-.804a.9.9 0 0 1 .181-.397.8.8 0 0 1 .347-.24q.214-.082.51-.082.285 0 .49.087a.84.84 0 0 1 .343.262q.114.155.164.387.049.233.049.752v.235h-1.4l-.006.072-.002.125q0 .438.082.614a.28.28 0 0 0 .275.175q.189 0 .274-.142.084-.143.085-.461" class="fil0"/><path id="123" d="M9.93 16.611a1.4 1.4 0 0 1 .005.173q0 .572-.243.846-.244.272-.755.272-.579 0-.81-.343-.23-.345-.23-1.277t.23-1.277q.231-.346.81-.346.51 0 .75.252.243.253.243.783v.109h-.68v-.07q0-.28-.072-.401-.072-.123-.234-.123-.165 0-.238.12t-.073.4v1.06q0 .319.07.442.07.125.236.125.181 0 .25-.143.072-.145.072-.538v-.066z" class="fil0"/><path id="1234" d="M11.575 16.68v.207q0 .248.047.315.046.066.171.066h.047l.03-.003v.554a6 6 0 0 1-.38.027q-.358 0-.493-.143-.135-.141-.135-.587V15.27h-.277v-.53h.277v-.84h.713v.84h.296v.53h-.296z" class="fil0"/><path id="12345" d="M12.672 17.82v-3.08h.681v.5q.147-.31.313-.444a.65.65 0 0 1 .406-.136v.865a1 1 0 0 0-.178-.01.5.5 0 0 0-.364.134.5.5 0 0 0-.134.366v1.804z" class="fil0"/><path id="123456" d="M15.503 16.249v.072q0 .716.071.875.072.16.277.16.212 0 .287-.15t.075-.78v-.302q0-.604-.076-.76-.076-.155-.28-.155-.203 0-.28.142-.074.143-.075.685zm-.73.033q0-.933.24-1.277.239-.347.844-.347.606 0 .845.347.24.345.24 1.277 0 .93-.24 1.276-.24.345-.845.344-.604 0-.844-.344-.24-.345-.24-1.276" class="fil0"/><path id="1234567" d="M17.83 17.82v-3.08h.697v.312a.8.8 0 0 1 .275-.294.7.7 0 0 1 .37-.1q.334 0 .513.192t.178.55v2.42h-.686v-2.065q0-.27-.07-.382-.07-.11-.23-.11-.179 0-.256.135-.078.136-.077.46v1.961z" class="fil0"/><path id="12345678" d="M20.827 14.36v-.639h.707v.639zm0 3.46v-3.08h.707v3.08z" class="fil0"/><path id="123456789" d="M24.45 16.611a1.4 1.4 0 0 1 .005.173q0 .572-.243.846-.244.272-.755.272-.579 0-.81-.343-.23-.345-.23-1.277t.23-1.277q.231-.346.81-.346.51 0 .75.252.243.253.243.783v.109h-.681v-.07q0-.28-.072-.401-.072-.123-.234-.123-.166 0-.238.12t-.073.4v1.06q0 .319.07.442.068.125.236.125.18 0 .25-.143.072-.145.072-.538v-.066z" class="fil0"/><path id="12345678910" d="M26.745 17.82v-4.1h2.105v.681h-1.347v.948h1.253V16h-1.253v1.127h1.379v.692z" class="fil0"/><path id="1234567891011" d="M29.765 17.82v-3.08h.697v.312a.8.8 0 0 1 .274-.294.7.7 0 0 1 .37-.1q.335 0 .514.192.178.192.178.55v2.42h-.687v-2.065q0-.27-.069-.382-.07-.11-.232-.11-.177 0-.255.135-.077.136-.077.46v1.961z" class="fil0"/><path id="123456789101112" d="M34.705 16.611a1.4 1.4 0 0 1 .006.173q0 .572-.244.846-.243.272-.754.272-.58 0-.81-.343-.23-.345-.23-1.277t.23-1.277q.23-.346.81-.346.508 0 .75.252.242.253.242.783v.109h-.68v-.07q0-.28-.073-.401-.072-.123-.234-.123-.165 0-.238.12t-.072.4v1.06q0 .319.068.442.07.125.238.125.18 0 .25-.143.07-.145.071-.538v-.066z" class="fil0"/><path id="12345678910111212" d="M35.595 17.82v-4.1h.708v4.098z" class="fil0"/><path id="1234567891011121400" d="M37.915 16.249v.072q0 .716.072.875t.277.16q.213 0 .287-.15.075-.15.074-.78v-.302q0-.604-.075-.76-.076-.155-.28-.155t-.28.142-.075.685zm-.73.033q0-.933.24-1.277.24-.347.844-.347.606 0 .846.347.24.345.24 1.277 0 .93-.24 1.276-.24.345-.846.344-.604 0-.844-.344-.24-.345-.24-1.276" class="fil0"/><path id="123456789101112130000" d="M40.134 16.795h.641v.088q0 .265.081.378.082.111.271.111a.33.33 0 0 0 .233-.08.3.3 0 0 0 .086-.22q0-.176-.343-.404l-.136-.091-.032-.024q-.785-.538-.785-1.053 0-.411.254-.626.253-.215.738-.215.469 0 .703.238t.234.723v.063h-.628v-.063q0-.226-.085-.328-.084-.104-.269-.104a.3.3 0 0 0-.212.074.25.25 0 0 0-.08.192q0 .112.07.203.07.09.316.255l.161.109q.775.51.775 1.025 0 .409-.262.633-.263.223-.746.223-.508 0-.75-.24-.24-.24-.24-.747l.003-.06z" class="fil0"/><path id="1.2345678910111212e+22" d="M45.022 14.74v3.08h-.7v-.307a.8.8 0 0 1-.273.29.7.7 0 0 1-.373.099q-.335 0-.511-.19-.177-.19-.176-.553V14.74h.687v2.012q0 .306.069.422.069.117.234.116.182 0 .254-.128.073-.127.073-.455V14.74z" class="fil0"/><path id="1.2345678910111213e+24" d="M46.002 17.82v-3.08h.68v.5q.147-.31.313-.444a.65.65 0 0 1 .406-.136v.865a1 1 0 0 0-.178-.01.5.5 0 0 0-.363.134.5.5 0 0 0-.135.366v1.804z" class="fil0"/><path id="1.2345678910111214e+26" d="M48.838 15.891h.692v-.13q0-.317-.078-.437-.076-.12-.271-.12-.188 0-.27.124-.078.125-.079.432l.003.045.002.086m.715.873h.671l.002.06.003.06q0 .526-.25.772-.253.246-.798.246a1.4 1.4 0 0 1-.482-.072.74.74 0 0 1-.32-.223q-.15-.18-.21-.45-.06-.271-.06-.976 0-.561.053-.804a.9.9 0 0 1 .18-.397.8.8 0 0 1 .347-.24q.216-.082.51-.082.285 0 .491.087a.84.84 0 0 1 .343.262q.114.155.163.387.05.233.05.752v.235h-1.4l-.007.072-.001.125q0 .438.081.614a.28.28 0 0 0 .275.175q.19 0 .275-.142.084-.143.084-.461" class="fil0"/><path id="1.2345678910111214e+28" d="M51.04 16.795h.642v.088q0 .265.08.378.082.111.271.111a.33.33 0 0 0 .234-.08.3.3 0 0 0 .085-.22q0-.176-.343-.404l-.136-.091-.031-.024q-.786-.538-.786-1.053 0-.411.254-.626t.739-.215q.468 0 .702.238t.234.723v.063h-.628v-.063q0-.226-.085-.328-.084-.104-.269-.104a.3.3 0 0 0-.212.074.25.25 0 0 0-.08.192q0 .112.07.203.07.09.316.255l.161.109q.775.51.775 1.025 0 .409-.262.633-.263.223-.746.223-.508 0-.75-.24-.24-.24-.24-.747l.003-.06z" class="fil0"/><path id="1.2345678910111213e+30" d="M56.616 15.012a1 1 0 0 0 .22-.24.5.5 0 0 0 .072-.255q0-.146-.066-.224-.068-.077-.194-.077-.135 0-.204.074-.07.073-.07.21 0 .033.016.08.015.046.044.1zm.423 2.049-.671-1.11a.9.9 0 0 0-.28.297.75.75 0 0 0-.095.372q0 .279.16.472a.49.49 0 0 0 .386.192.6.6 0 0 0 .246-.05q.115-.05.254-.173m.425.758-.135-.26a1.1 1.1 0 0 1-.386.251q-.216.081-.498.081-.54 0-.853-.33t-.312-.897q0-.364.172-.648.174-.283.607-.61-.176-.274-.248-.472a1.1 1.1 0 0 1-.074-.385q0-.372.24-.6t.639-.228q.427 0 .66.203.23.202.23.576 0 .315-.147.574a1.35 1.35 0 0 1-.435.451l.492.844q.05-.132.073-.293.027-.159.026-.354v-.066h.625a3.2 3.2 0 0 1-.092.76 1.8 1.8 0 0 1-.257.581l.485.822z" class="fil0"/><path id="1.2345678910111214e+32" d="M62.243 16.358h.742q0 .027.003.078l.002.082q0 .71-.3 1.055-.297.345-.916.344-.292 0-.503-.075a.9.9 0 0 1-.362-.236 1.2 1.2 0 0 1-.292-.585q-.085-.373-.085-1.299 0-.633.05-1.007t.157-.557a1.03 1.03 0 0 1 .41-.409q.245-.126.625-.126.623 0 .906.324.283.325.286 1.044h-.74v-.098q0-.334-.108-.497-.106-.163-.328-.163-.274 0-.374.226-.1.225-.1 1.25 0 1.107.097 1.346.098.24.372.24.255 0 .357-.188.1-.187.1-.693z" class="fil0"/><path id="1.2345678910111214e+34" d="M64.558 16.249v.072q0 .716.071.875.072.16.277.16.212 0 .287-.15t.075-.78v-.302q0-.604-.076-.76-.076-.155-.28-.155-.203 0-.28.142-.074.143-.074.685zm-.73.033q0-.933.24-1.277.239-.347.844-.347.606 0 .845.347.24.345.24 1.277 0 .93-.24 1.276-.24.345-.845.344-.605 0-.844-.344-.24-.345-.24-1.276" class="fil0"/><path id="1.2345678910111212e+36" d="M66.891 17.82v-3.08h.66v.354a.8.8 0 0 1 .29-.338.9.9 0 0 1 .454-.098q.227 0 .395.103a.56.56 0 0 1 .238.286.9.9 0 0 1 .306-.298.8.8 0 0 1 .403-.09q.364 0 .548.2.186.202.186.595v2.365h-.698v-1.965q0-.365-.074-.472-.075-.105-.274-.106-.186 0-.265.121-.078.121-.078.44v1.982h-.702v-2q0-.315-.074-.428-.072-.115-.253-.115-.192 0-.276.123t-.084.41v2.01z" class="fil0"/><path id="1.2345678910111214e+38" d="M72.03 16.15q0 .75.078.95a.29.29 0 0 0 .291.2.256.256 0 0 0 .258-.172q.07-.173.07-.857 0-.663-.07-.844-.069-.18-.258-.18-.213 0-.291.165-.079.165-.078.739m-.692 2.705V14.74h.675v.323a.64.64 0 0 1 .244-.304.7.7 0 0 1 .381-.1q.449 0 .63.354.182.353.182 1.252 0 .933-.177 1.285t-.618.352a.7.7 0 0 1-.367-.085.6.6 0 0 1-.237-.258v1.296z" class="fil0"/><path id="1.2345678910111213e+40" d="M74.98 16.249v.072q0 .716.072.875t.277.16q.212 0 .287-.15t.074-.78v-.302q0-.604-.075-.76-.076-.155-.28-.155t-.28.142-.075.685zm-.73.033q0-.933.24-1.277.24-.347.844-.347.606 0 .846.347.24.345.24 1.277 0 .93-.24 1.276-.24.345-.846.344-.605 0-.843-.344-.24-.345-.24-1.276" class="fil0"/><path id="1.2345678910111213e+42" d="M77.308 17.82v-3.08h.697v.312a.8.8 0 0 1 .274-.294.7.7 0 0 1 .37-.1q.335 0 .514.192.178.192.178.55v2.42h-.687v-2.065q0-.27-.069-.382-.069-.11-.231-.11-.18 0-.255.135-.078.136-.078.46v1.961z" class="fil0"/><path id="1.2345678910111213e+44" d="M80.95 15.891h.693v-.13q0-.317-.077-.437-.078-.12-.272-.12-.189 0-.269.124-.079.125-.08.432l.003.045zm.716.873h.672l.002.06.002.06q0 .526-.25.772-.253.246-.798.246a1.4 1.4 0 0 1-.481-.072.74.74 0 0 1-.32-.223q-.15-.18-.21-.45-.062-.271-.062-.976 0-.561.054-.804a.9.9 0 0 1 .18-.397.8.8 0 0 1 .348-.24q.215-.082.51-.082.285 0 .49.087a.84.84 0 0 1 .343.262q.113.155.164.387.049.233.049.752v.235h-1.4l-.006.072-.002.125q0 .438.082.614a.28.28 0 0 0 .275.175q.189 0 .274-.142.084-.143.085-.461" class="fil0"/><path id="1.2345678910111213e+46" d="M83.263 17.82v-3.08h.696v.312a.8.8 0 0 1 .275-.294.7.7 0 0 1 .37-.1q.334 0 .513.192t.178.55v2.42h-.686v-2.065q0-.27-.07-.382-.07-.11-.23-.11-.179 0-.256.135-.078.136-.077.46v1.961z" class="fil0"/><path id="1.2345678910111213e+48" d="M87.014 16.68v.207q0 .248.047.315.046.066.171.066h.047l.03-.003v.554a6 6 0 0 1-.38.027q-.359 0-.493-.143-.135-.141-.135-.587V15.27h-.277v-.53h.277v-.84h.713v.84h.295v.53h-.295z" class="fil0"/><path id="1.2345678910111214e+50" d="M87.996 16.795h.642v.088q0 .265.08.378.082.111.271.111a.33.33 0 0 0 .234-.08.3.3 0 0 0 .085-.22q0-.176-.343-.404l-.136-.091-.032-.024q-.786-.538-.785-1.053 0-.411.254-.626.253-.215.739-.215.467 0 .702.238t.234.723v.063h-.628v-.063q0-.226-.085-.328-.084-.104-.269-.104a.3.3 0 0 0-.212.074.25.25 0 0 0-.08.192q0 .112.07.203.07.09.316.255l.161.109q.775.51.775 1.025 0 .409-.262.633-.263.223-.746.223-.509 0-.75-.24-.24-.24-.24-.747l.003-.06z" class="fil0"/><g id="_382037040"><path id="_383618960" d="M.035 4.004h14.871v7.149H.035z" style="fill:#fefefe"/><path id="_383618984" d="M.964 0h13.012c.512 0 .93.418.93.93v10.223h-1.17q.037-.162.036-.345c.004-.897-.666-1.407-1.79-1.429-.98-.018-1.953.526-2.188.666a2.44 2.44 0 0 1 .094 1.108H5.052a2.45 2.45 0 0 1 .098-1.121c-.227-.136-1.206-.686-2.191-.668-1.125.021-1.795.532-1.791 1.428q0 .193.04.361H.034V.93c0-.512.417-.93.93-.93m4.328 9.691c-.268-.067-1.337-.371-2.015-1.075-.78-.81-.893-1.645-.256-2.277.631-.636 1.466-.523 2.276.257.708.682 1.012 1.76 1.077 2.02A2.46 2.46 0 0 0 5.292 9.69m1.423-1.215c-.14-.235-.683-1.208-.665-2.187.02-1.125.532-1.795 1.428-1.791.896-.004 1.407.666 1.428 1.79.018.986-.532 1.966-.668 2.192a2.44 2.44 0 0 0-1.523-.004m1.864.146c.067-.267.371-1.337 1.075-2.015.81-.78 1.645-.893 2.277-.256.636.63.523 1.465-.257 2.276-.682.708-1.76 1.012-2.02 1.076a2.46 2.46 0 0 0-1.075-1.08" class="fil2"/><path id="_382333192" d="M80.502 11.153 83.747 0h3l3.242 11.153h-2.937l-.344-1.476H83.77l-.357 1.476zm3.807-3.815h1.86l-.92-3.861zm-8.243 3.815V7.025L72.67 0h3.281l1.593 3.802L79.148 0h3.194l-3.314 7.025v4.128zm-11.064 0L68.247 0h3l3.243 11.153h-2.938l-.344-1.476h-2.937l-.357 1.476zm3.808-3.815h1.86l-.92-3.861zm-12.801 3.815V0h2.937v3.696L61.6 0h3.44l-3.294 4.112 3.72 7.04h-3.533L59.68 6.688l-.733.915v3.55zm-9.976 0V0h2.81l2.587 5.188q.12.216.255.62.135.4.284.97a9 9 0 0 1-.055-.652q-.02-.356-.02-.863V0h2.824v11.153h-2.824l-2.586-5.149a5 5 0 0 1-.261-.643 15 15 0 0 1-.284-.954q.044.296.062.618.018.32.019.905v5.223zm-4.356 0V0h3.018v11.153zm-6.627 0V2.939h-2.655V0h8.217v2.94h-2.6v8.214zm-8.165 0V0h2.963v8.191h4.027v2.962zm-10.334 0L19.796 0h3l3.243 11.153H23.1l-.344-1.476H19.82l-.357 1.476zm3.808-3.815h1.86l-.92-3.861z" class="fil0"/><path id="_382333312" d="M.01 12.182h90v.7h-90z" class="fil2"/></g></g></svg>